<svg xmlns="http://www.w3.org/2000/svg" viewBox="0 0 64 64">
  <defs>
    <radialGradient id="bg" cx="30%" cy="20%" r="110%">
      <stop offset="0%" stop-color="#3A54D6"></stop>
      <stop offset="65%" stop-color="#18246E"></stop>
      <stop offset="100%" stop-color="#0E1750"></stop>
    </radialGradient>
  </defs>
  <rect width="64" height="64" fill="url(#bg)"></rect>
  <g fill="#D9F531">
    <path d="M33.5 30.5 C33.5 18 40 9.5 52 9 C52.5 21 44 28.5 33.5 30.5 Z"></path>
    <path d="M33.5 33.5 C46 33.5 54.5 40 55 52 C43 52.5 35.5 44 33.5 33.5 Z"></path>
    <path d="M30.5 33.5 C30.5 46 24 54.5 12 55 C11.5 43 20 35.5 30.5 33.5 Z"></path>
    <path d="M30.5 30.5 C18 30.5 9.5 24 9 12 C21 11.5 28.5 20 30.5 30.5 Z"></path>
  </g>
</svg>